<?xml version="1.0" encoding="utf-8"?>
<!-- Generator: Adobe Illustrator 27.0.0, SVG Export Plug-In . SVG Version: 6.00 Build 0)  -->
<svg version="1.1" id="圖層_1" xmlns="http://www.w3.org/2000/svg" xmlns:xlink="http://www.w3.org/1999/xlink" x="0px" y="0px"
	 viewBox="0 0 150 150" style="enable-background:new 0 0 150 150;" xml:space="preserve">
<style type="text/css">
	.st0{fill:none;stroke:#009688;stroke-width:9;stroke-miterlimit:10;}
	.st1{fill:none;stroke:#009688;stroke-width:9;stroke-miterlimit:10;}
</style>
<g id="medical-insurance" transform="translate(-3 -2)">
	<path id="secondary" class="st0" d="M121.75,33.25c3.45,0,6.25,2.8,6.25,6.25v22.12c0.01,31.16-18.78,59.24-47.57,71.13
		c-1.55,0.66-3.31,0.66-4.86,0C46.77,120.86,27.99,92.78,28,61.63V39.5c0-3.45,2.8-6.25,6.25-6.25c15.5,0.23,30.71-4.12,43.75-12.5
		C91.04,29.13,106.25,33.48,121.75,33.25z"/>
	<path id="primary" class="st1" d="M78,89.5v-25 M90.5,77h-25 M78,20.75c-13.04,8.38-28.25,12.73-43.75,12.5
		c-3.45,0-6.25,2.8-6.25,6.25v22.12c-0.01,31.16,18.78,59.24,47.57,71.13c1.55,0.66,3.31,0.66,4.86,0
		c28.79-11.89,47.57-39.98,47.56-71.13V39.5c0-3.45-2.8-6.25-6.25-6.25C106.25,33.48,91.04,29.13,78,20.75z"/>
</g>
</svg>
