<?xml version="1.0" encoding="utf-8"?><!-- Uploaded to: SVG Repo, www.svgrepo.com, Generator: SVG Repo Mixer Tools -->
<svg fill="#009688" width="800px" height="800px" viewBox="0 0 24 24" id="ear" data-name="Flat Line" xmlns="http://www.w3.org/2000/svg" class="icon flat-line"><path id="secondary" d="M13.2,3.19c3.31.62,4.8,4,4.8,5.94s-1,3.95-3,5.93S13,21,10.06,21c-2.62,0-2.92-2.2-3-3.55-.13-2.56.47-2.52.17-4s-.93-2-1.12-3.29C5.78,8.2,6,1.82,13.2,3.19Z" style="fill:none; stroke-width: 2;"></path><path id="primary" d="M12.19,12.21A3.8,3.8,0,0,0,14,9.08a2.14,2.14,0,0,0-1.39-2C12.29,7,10.32,6.53,10,9" style="fill: none; stroke: #009688; stroke-linecap: round; stroke-linejoin: round; stroke-width: 2;"></path><path id="primary-2" data-name="primary" d="M13.2,3.19c3.31.62,4.8,4,4.8,5.94s-1,3.95-3,5.93S13,21,10.06,21c-2.62,0-2.92-2.2-3-3.55-.13-2.56.47-2.52.17-4s-.93-2-1.12-3.29C5.78,8.2,6,1.82,13.2,3.19Z" style="fill: none; stroke:#009688; stroke-linecap: round; stroke-linejoin: round; stroke-width: 2;"></path></svg>