<?xml version="1.0" encoding="utf-8"?>
<!-- Generator: Adobe Illustrator 27.0.0, SVG Export Plug-In . SVG Version: 6.00 Build 0)  -->
<svg version="1.1" id="圖層_1" xmlns="http://www.w3.org/2000/svg" xmlns:xlink="http://www.w3.org/1999/xlink" x="0px" y="0px"
	 viewBox="0 0 150 150" style="enable-background:new 0 0 150 150;" xml:space="preserve">
<style type="text/css">
	.st0{fill:none;stroke:#009688;stroke-width:10;stroke-miterlimit:10;}
	.st1{fill:none;stroke:#009688;stroke-width:10;stroke-linecap:round;stroke-linejoin:round;stroke-miterlimit:169.9596;}
</style>
<g id="syringe-right-2" transform="translate(-2.586 -2.586)">
	<path id="secondary" class="st0" d="M105.97,71.89l-32.65,32.6L51.59,82.75l32.6-32.65c1.99-2.01,5.24-2.02,7.25-0.03
		c0.01,0.01,0.02,0.02,0.03,0.03l14.5,14.5c2.01,1.99,2.02,5.24,0.03,7.25C105.99,71.87,105.98,71.88,105.97,71.89z"/>
	<path id="primary" class="st1" d="M73.83,103.97l32.14-32.08c2.01-1.99,2.02-5.24,0.03-7.25c-0.01-0.01-0.02-0.02-0.03-0.03
		l-14.5-14.5c-1.99-2.01-5.24-2.02-7.25-0.03c-0.01,0.01-0.02,0.02-0.03,0.03L52,82.29"/>
	<path id="primary-2" class="st1" d="M51.59,118.99l-14.5-14.5 M62.71,93.62l-18.4,18.14 M76.96,108.12L47.95,79.11 M99.2,57.07
		l19.89-20.09"/>
</g>
</svg>
