<?xml version="1.0" encoding="utf-8"?>
<!-- Generator: Adobe Illustrator 27.0.0, SVG Export Plug-In . SVG Version: 6.00 Build 0)  -->
<svg version="1.1" id="圖層_1" xmlns="http://www.w3.org/2000/svg" xmlns:xlink="http://www.w3.org/1999/xlink" x="0px" y="0px"
	 viewBox="0 0 150 150" style="enable-background:new 0 0 150 150;" xml:space="preserve">
<style type="text/css">
	.st0{fill:none;stroke:#009688;stroke-width:11;stroke-miterlimit:10;}
	.st1{fill:none;stroke:#009688;stroke-width:5;stroke-miterlimit:10;}
	.st2{fill:none;stroke:#009688;stroke-width:11;stroke-miterlimit:10;}
</style>
<g>
	<g id="heartbeat_00000054263161620589358630000007746675511394784674_" transform="translate(-2.039 -1.96)">
		<path id="secondary_00000166665056464981410250000013781190475898986890_" class="st0" d="M115.9,88.52
			c-10.92,14.8-24.07,27.81-38.98,38.59c-14.91-10.77-28.05-23.79-38.98-38.59c-12.36-16.7-15.37-40.37-2.95-52.62
			c22.27-22.27,42.15,3.4,42.15,3.4s19.77-25.5,42.15-3.4C131.49,48.15,128.48,71.93,115.9,88.52z"/>
		<path id="primary_00000065755459908879375040000003611506316579124096_" class="st1" d="M54.64,77.04h11.14l5.57-16.7l11.14,33.41
			l5.57-16.7h11.08"/>
		<path id="primary-2_00000098192417032769510650000005266250151223623300_" class="st2" d="M115.9,88.52
			c-10.92,14.8-24.07,27.81-38.98,38.59c-14.91-10.77-28.05-23.79-38.98-38.59c-12.36-16.7-15.37-40.37-2.95-52.62
			c22.27-22.27,42.15,3.4,42.15,3.4s19.77-25.5,42.15-3.4C131.49,48.15,128.48,71.93,115.9,88.52z"/>
	</g>
</g>
</svg>
