<?xml version="1.0" encoding="utf-8"?>
<!-- Generator: Adobe Illustrator 27.0.0, SVG Export Plug-In . SVG Version: 6.00 Build 0)  -->
<svg version="1.1" id="圖層_1" xmlns="http://www.w3.org/2000/svg" xmlns:xlink="http://www.w3.org/1999/xlink" x="0px" y="0px"
	 viewBox="0 0 150 150" style="enable-background:new 0 0 150 150;" xml:space="preserve">
<style type="text/css">
	.st0{fill:#2CA9BC;stroke:#000000;stroke-width:9;stroke-miterlimit:10;}
	.st1{fill:none;stroke:#000000;stroke-width:9;stroke-miterlimit:10;}
</style>
<g id="medical-insurance" transform="translate(-3 -2)">
	<path id="secondary" class="st0" d="M118.47,36.53c3.19,0,5.78,2.59,5.78,5.78v20.47c0,28.82-17.37,54.8-44.01,65.81
		c-1.44,0.61-3.06,0.61-4.5,0c-26.64-11-44.01-36.99-44-65.81V42.31c0-3.19,2.59-5.78,5.78-5.78C51.86,36.74,65.94,32.71,78,24.96
		C90.06,32.71,104.14,36.74,118.47,36.53z"/>
	<path id="primary" class="st1" d="M78,88.56V65.44 M89.56,77H66.44 M78,24.96c-12.06,7.75-26.14,11.78-40.47,11.56
		c-3.19,0-5.78,2.59-5.78,5.78v20.47c0,28.82,17.37,54.8,44.01,65.81c1.44,0.61,3.06,0.61,4.5,0c26.64-11,44.01-36.99,44-65.81
		V42.31c0-3.19-2.59-5.78-5.78-5.78C104.14,36.74,90.06,32.71,78,24.96z"/>
</g>
</svg>
