<?xml version="1.0" encoding="utf-8"?>
<!-- Generator: Adobe Illustrator 27.0.0, SVG Export Plug-In . SVG Version: 6.00 Build 0)  -->
<svg version="1.1" id="圖層_1" xmlns="http://www.w3.org/2000/svg" xmlns:xlink="http://www.w3.org/1999/xlink" x="0px" y="0px"
	 viewBox="0 0 800 800" style="enable-background:new 0 0 800 800;" xml:space="preserve">
<style type="text/css">
	.st0{fill:#2CA9BC;}
	.st1{fill:none;stroke:#000000;stroke-width:84.9798;stroke-linecap:round;stroke-linejoin:round;stroke-miterlimit:169.9596;}
</style>
<g id="syringe-right-2" transform="translate(-2.586 -2.586)">
	<path id="secondary" class="st0" d="M633.7,352L363.1,622.3L182.9,442.1l270.2-270.7c16.5-16.7,43.4-16.8,60.1-0.2
		c0.1,0.1,0.2,0.2,0.2,0.2l120.2,120.2c16.7,16.5,16.8,43.4,0.2,60.1C633.9,351.9,633.8,351.9,633.7,352z"/>
	<path id="primary" class="st1" d="M367.3,618l266.4-266c16.7-16.5,16.8-43.4,0.2-60.1c-0.1-0.1-0.2-0.2-0.2-0.2L513.5,171.4
		c-16.5-16.7-43.4-16.8-60.1-0.2c-0.1,0.1-0.2,0.2-0.2,0.2L186.3,438.3"/>
	<path id="primary-2" class="st1" d="M182.9,742.5L62.7,622.3 M275.1,532.2L122.6,682.6 M393.2,652.4L152.7,411.9 M577.6,229.2
		L742.5,62.7"/>
</g>
</svg>
